HIERARCHY
ROOT Hips
{
	OFFSET 0.000000 87.230942 0.000000
	CHANNELS 6 Xposition Yposition Zposition Xrotation Yrotation Zrotation
	JOINT Pelvis
	{
		OFFSET 0.000000 0.000000 0.000000
		CHANNELS 3 Xrotation Yrotation Zrotation
		JOINT LeftUpLeg
		{
			OFFSET 12.017000 -9.376404 -2.439400
			CHANNELS 3 Xrotation Yrotation Zrotation
			JOINT LeftLeg
			{
				OFFSET -0.007312 -32.846973 2.110600
				CHANNELS 3 Xrotation Yrotation Zrotation
				JOINT LeftFoot
				{
					OFFSET 0.007312 -32.065170 -0.570400
					CHANNELS 3 Xrotation Yrotation Zrotation
					JOINT LeftToeBase
					{
						OFFSET 0.728300 -11.045900 13.180700
						CHANNELS 3 Xrotation Yrotation Zrotation
						End Site
						{
							OFFSET 0.000000 17.212589 0.000000
						}
					}
				}
				JOINT LeftPantLeg
				{
					OFFSET 0.002788 -16.709013 -3.143600
					CHANNELS 3 Xrotation Yrotation Zrotation
					End Site
					{
						OFFSET -0.605125 24.528742 0.000000
					}
				}
			}
			JOINT Left_Butt
			{
				OFFSET -6.630234 1.326584 -3.183700
				CHANNELS 3 Xrotation Yrotation Zrotation
				End Site
				{
					OFFSET -0.498041 20.188049 0.000000
				}
			}
		}
		JOINT RightUpLeg
		{
			OFFSET -11.717000 -9.376404 -2.439400
			CHANNELS 3 Xrotation Yrotation Zrotation
			JOINT RightLeg
			{
				OFFSET -0.003241 -32.846912 2.110600
				CHANNELS 3 Xrotation Yrotation Zrotation
				JOINT RightFoot
				{
					OFFSET 0.003241 -32.065136 -0.570500
					CHANNELS 3 Xrotation Yrotation Zrotation
					JOINT RightToeBase
					{
						OFFSET -0.728300 -11.045901 13.180700
						CHANNELS 3 Xrotation Yrotation Zrotation
						End Site
						{
							OFFSET 0.000000 17.212593 0.000000
						}
					}
				}
				JOINT RightPantLeg
				{
					OFFSET 0.008142 -16.708982 -3.143700
					CHANNELS 3 Xrotation Yrotation Zrotation
					End Site
					{
						OFFSET 0.605088 24.528715 0.000000
					}
				}
			}
			JOINT Right_Butt
			{
				OFFSET 6.630732 1.326584 -3.183700
				CHANNELS 3 Xrotation Yrotation Zrotation
				End Site
				{
					OFFSET 0.498015 20.188240 0.000000
				}
			}
		}
	}
	JOINT Spine
	{
		OFFSET -0.062400 7.848404 3.918300
		CHANNELS 3 Xrotation Yrotation Zrotation
		JOINT Spine1
		{
			OFFSET -0.072800 11.422302 0.713400
			CHANNELS 3 Xrotation Yrotation Zrotation
			JOINT Spine2
			{
				OFFSET -0.083200 13.054001 -1.931600
				CHANNELS 3 Xrotation Yrotation Zrotation
				JOINT Neck
				{
					OFFSET -0.092200 14.121796 -5.138800
					CHANNELS 3 Xrotation Yrotation Zrotation
					JOINT Head
					{
						OFFSET 0.000200 10.447403 -0.842000
						CHANNELS 3 Xrotation Yrotation Zrotation
						JOINT Visor
						{
							OFFSET 0.457100 25.671204 16.550400
							CHANNELS 3 Xrotation Yrotation Zrotation
							End Site
							{
								OFFSET 0.000000 26.061493 0.000000
							}
						}
						JOINT HairMidA
						{
							OFFSET 0.459400 31.585403 8.437400
							CHANNELS 3 Xrotation Yrotation Zrotation
							End Site
							{
								OFFSET 0.000000 26.061493 0.000000
							}
						}
						JOINT HairMidB
						{
							OFFSET 0.464000 33.309204 -8.389700
							CHANNELS 3 Xrotation Yrotation Zrotation
							End Site
							{
								OFFSET 0.000000 26.061493 0.000000
							}
						}
						JOINT HairMidC
						{
							OFFSET 0.466600 27.991196 -17.375099
							CHANNELS 3 Xrotation Yrotation Zrotation
							End Site
							{
								OFFSET 0.000000 26.061493 0.000000
							}
						}
						JOINT HairMidD
						{
							OFFSET 0.467700 17.888092 -21.169500
							CHANNELS 3 Xrotation Yrotation Zrotation
							End Site
							{
								OFFSET 0.000000 26.061493 0.000000
							}
						}
						JOINT HairMidE
						{
							OFFSET 5.325700 3.514603 -14.369699
							CHANNELS 3 Xrotation Yrotation Zrotation
							End Site
							{
								OFFSET 0.000000 26.061493 0.000000
							}
						}
						JOINT HairMidF
						{
							OFFSET -4.394100 3.514603 -14.372400
							CHANNELS 3 Xrotation Yrotation Zrotation
							End Site
							{
								OFFSET 0.000000 26.061493 0.000000
							}
						}
						JOINT HairLeftA
						{
							OFFSET 15.319900 25.746506 2.623300
							CHANNELS 3 Xrotation Yrotation Zrotation
							End Site
							{
								OFFSET 0.000000 26.061493 0.000000
							}
						}
						JOINT HairLeftB
						{
							OFFSET 12.619500 29.289398 -8.731499
							CHANNELS 3 Xrotation Yrotation Zrotation
							End Site
							{
								OFFSET 0.000000 26.061493 0.000000
							}
						}
						JOINT HairLeftC
						{
							OFFSET 15.714800 15.959900 2.909800
							CHANNELS 3 Xrotation Yrotation Zrotation
							End Site
							{
								OFFSET 0.000000 26.061493 0.000000
							}
						}
						JOINT HairLeftD
						{
							OFFSET 16.101700 18.437408 -7.553200
							CHANNELS 3 Xrotation Yrotation Zrotation
							End Site
							{
								OFFSET 0.000000 26.061493 0.000000
							}
						}
						JOINT HairLeftE
						{
							OFFSET 9.731900 17.915009 -18.316799
							CHANNELS 3 Xrotation Yrotation Zrotation
							End Site
							{
								OFFSET 0.000000 26.061493 0.000000
							}
						}
						JOINT HairLeftF
						{
							OFFSET 11.204300 4.953598 -9.668100
							CHANNELS 3 Xrotation Yrotation Zrotation
							End Site
							{
								OFFSET 0.000000 26.061493 0.000000
							}
						}
						JOINT HairRightA
						{
							OFFSET -14.397900 25.746307 2.615100
							CHANNELS 3 Xrotation Yrotation Zrotation
							End Site
							{
								OFFSET 0.000000 26.061493 0.000000
							}
						}
						JOINT HairRightB
						{
							OFFSET -11.691200 29.289200 -8.738199
							CHANNELS 3 Xrotation Yrotation Zrotation
							End Site
							{
								OFFSET 0.000000 26.061493 0.000000
							}
						}
						JOINT HairRightC
						{
							OFFSET -14.792900 15.959702 2.901400
							CHANNELS 3 Xrotation Yrotation Zrotation
							End Site
							{
								OFFSET 0.000000 26.061493 0.000000
							}
						}
						JOINT HairRightD
						{
							OFFSET -15.174000 18.437195 -7.561900
							CHANNELS 3 Xrotation Yrotation Zrotation
							End Site
							{
								OFFSET 0.000000 26.061493 0.000000
							}
						}
						JOINT HairRightE
						{
							OFFSET -8.798200 17.914902 -18.322001
							CHANNELS 3 Xrotation Yrotation Zrotation
							End Site
							{
								OFFSET 0.000000 26.061493 0.000000
							}
						}
						JOINT HairRightF
						{
							OFFSET -10.275200 4.953506 -9.674099
							CHANNELS 3 Xrotation Yrotation Zrotation
							End Site
							{
								OFFSET 0.000000 26.061493 0.000000
							}
						}
					}
				}
				JOINT LeftShoulder
				{
					OFFSET 5.133500 7.341202 -1.867600
					CHANNELS 3 Xrotation Yrotation Zrotation
					JOINT LeftArm
					{
						OFFSET 8.072663 0.936867 -2.176600
						CHANNELS 3 Xrotation Yrotation Zrotation
						JOINT LeftForeArm
						{
							OFFSET 31.271999 0.000000 0.000000
							CHANNELS 3 Xrotation Yrotation Zrotation
							JOINT LeftHand
							{
								OFFSET 31.771030 0.000000 0.000000
								CHANNELS 3 Xrotation Yrotation Zrotation
								JOINT LeftHandThumb1
								{
									OFFSET 2.886520 -2.557846 4.416640
									CHANNELS 3 Xrotation Yrotation Zrotation
									JOINT LeftHandThumb2
									{
										OFFSET 2.371025 -1.368912 1.368911
										CHANNELS 3 Xrotation Yrotation Zrotation
										JOINT LeftHandThumb3
										{
											OFFSET 2.243378 -1.295212 1.295213
											CHANNELS 3 Xrotation Yrotation Zrotation
											End Site
											{
												OFFSET -0.332611 2.876945 0.020015
											}
										}
									}
								}
								JOINT LeftHandIndex1
								{
									OFFSET 8.568985 -0.641945 3.119977
									CHANNELS 3 Xrotation Yrotation Zrotation
									JOINT LeftHandIndex2
									{
										OFFSET 3.348503 0.000000 0.000000
										CHANNELS 3 Xrotation Yrotation Zrotation
										JOINT LeftHandIndex3
										{
											OFFSET 3.314552 0.000000 0.000000
											CHANNELS 3 Xrotation Yrotation Zrotation
											End Site
											{
												OFFSET -1.032898 3.075485 0.678796
											}
										}
									}
								}
								JOINT LeftHandMiddle1
								{
									OFFSET 8.124603 0.000000 0.000000
									CHANNELS 3 Xrotation Yrotation Zrotation
									JOINT LeftHandMiddle2
									{
										OFFSET 4.166275 0.000000 0.000000
										CHANNELS 3 Xrotation Yrotation Zrotation
										JOINT LeftHandMiddle3
										{
											OFFSET 3.018135 0.000000 0.000000
											CHANNELS 3 Xrotation Yrotation Zrotation
											End Site
											{
												OFFSET -1.032700 2.767982 0.617226
											}
										}
									}
								}
								JOINT LeftHandRing1
								{
									OFFSET 8.571686 -0.031357 -2.884048
									CHANNELS 3 Xrotation Yrotation Zrotation
									JOINT LeftHandRing2
									{
										OFFSET 3.671181 0.000000 0.000000
										CHANNELS 3 Xrotation Yrotation Zrotation
										JOINT LeftHandRing3
										{
											OFFSET 2.728851 0.000000 0.000000
											CHANNELS 3 Xrotation Yrotation Zrotation
											End Site
											{
												OFFSET -0.815796 2.539223 0.577389
											}
										}
									}
								}
								JOINT LeftHandPinky1
								{
									OFFSET 7.854515 -0.675232 -5.213020
									CHANNELS 3 Xrotation Yrotation Zrotation
									JOINT LeftHandPinky2
									{
										OFFSET 3.068596 0.000000 0.000000
										CHANNELS 3 Xrotation Yrotation Zrotation
										JOINT LeftHandPinky3
										{
											OFFSET 2.396042 0.000000 0.000000
											CHANNELS 3 Xrotation Yrotation Zrotation
											End Site
											{
												OFFSET -0.524597 2.267998 0.567429
											}
										}
									}
								}
							}
							JOINT LeftSleeve
							{
								OFFSET 19.684509 -0.200119 0.476146
								CHANNELS 3 Xrotation Yrotation Zrotation
								End Site
								{
									OFFSET -0.031017 25.731133 -0.002868
								}
							}
						}
					}
				}
				JOINT RightShoulder
				{
					OFFSET -4.395900 7.341202 -1.870200
					CHANNELS 3 Xrotation Yrotation Zrotation
					JOINT RightArm
					{
						OFFSET -8.071453 0.936867 -2.181100
						CHANNELS 3 Xrotation Yrotation Zrotation
						JOINT RightForeArm
						{
							OFFSET -31.272011 0.000000 0.000000
							CHANNELS 3 Xrotation Yrotation Zrotation
							JOINT RightHand
							{
								OFFSET -31.771019 0.000000 0.000000
								CHANNELS 3 Xrotation Yrotation Zrotation
								JOINT RightHandThumb1
								{
									OFFSET -2.886520 -2.557808 4.416626
									CHANNELS 3 Xrotation Yrotation Zrotation
									JOINT RightHandThumb2
									{
										OFFSET -2.371056 -1.368927 1.368928
										CHANNELS 3 Xrotation Yrotation Zrotation
										JOINT RightHandThumb3
										{
											OFFSET -2.243362 -1.295204 1.295206
											CHANNELS 3 Xrotation Yrotation Zrotation
											End Site
											{
												OFFSET 0.332642 2.876938 0.020047
											}
										}
									}
								}
								JOINT RightHandIndex1
								{
									OFFSET -8.568993 -0.641953 3.120017
									CHANNELS 3 Xrotation Yrotation Zrotation
									JOINT RightHandIndex2
									{
										OFFSET -3.348518 0.000000 0.000000
										CHANNELS 3 Xrotation Yrotation Zrotation
										JOINT RightHandIndex3
										{
											OFFSET -3.314552 0.000000 0.000000
											CHANNELS 3 Xrotation Yrotation Zrotation
											End Site
											{
												OFFSET 1.032898 3.075478 0.678804
											}
										}
									}
								}
								JOINT RightHandMiddle1
								{
									OFFSET -8.124588 0.000000 0.000000
									CHANNELS 3 Xrotation Yrotation Zrotation
									JOINT RightHandMiddle2
									{
										OFFSET -4.166275 0.000000 0.000000
										CHANNELS 3 Xrotation Yrotation Zrotation
										JOINT RightHandMiddle3
										{
											OFFSET -3.018097 0.000000 0.000000
											CHANNELS 3 Xrotation Yrotation Zrotation
											End Site
											{
												OFFSET 1.032700 2.767937 0.617197
											}
										}
									}
								}
								JOINT RightHandRing1
								{
									OFFSET -8.571747 -0.031349 -2.884061
									CHANNELS 3 Xrotation Yrotation Zrotation
									JOINT RightHandRing2
									{
										OFFSET -3.671204 0.000000 0.000000
										CHANNELS 3 Xrotation Yrotation Zrotation
										JOINT RightHandRing3
										{
											OFFSET -2.728874 0.000000 0.000000
											CHANNELS 3 Xrotation Yrotation Zrotation
											End Site
											{
												OFFSET 0.815804 2.539261 0.577413
											}
										}
									}
								}
								JOINT RightHandPinky1
								{
									OFFSET -7.854561 -0.675247 -5.212970
									CHANNELS 3 Xrotation Yrotation Zrotation
									JOINT RightHandPinky2
									{
										OFFSET -3.068550 0.000000 0.000000
										CHANNELS 3 Xrotation Yrotation Zrotation
										JOINT RightHandPinky3
										{
											OFFSET -2.395981 0.000000 0.000000
											CHANNELS 3 Xrotation Yrotation Zrotation
											End Site
											{
												OFFSET 0.524605 2.267952 0.567413
											}
										}
									}
								}
							}
							JOINT RightSleeve
							{
								OFFSET -19.684753 -0.200165 0.476065
								CHANNELS 3 Xrotation Yrotation Zrotation
								End Site
								{
									OFFSET 0.031342 25.731255 -0.002917
								}
							}
						}
					}
				}
				JOINT Hood
				{
					OFFSET 0.369700 14.447800 -5.317800
					CHANNELS 3 Xrotation Yrotation Zrotation
					JOINT Hood1
					{
						OFFSET 0.001700 -5.553802 -5.895100
						CHANNELS 3 Xrotation Yrotation Zrotation
						JOINT Hood2
						{
							OFFSET -0.000200 -8.380501 0.763600
							CHANNELS 3 Xrotation Yrotation Zrotation
							End Site
							{
								OFFSET 0.000000 8.415215 0.000000
							}
						}
					}
				}
				JOINT Left_Breast
				{
					OFFSET 5.682500 3.120102 3.188800
					CHANNELS 3 Xrotation Yrotation Zrotation
					End Site
					{
						OFFSET 0.000000 10.528564 0.000000
					}
				}
				JOINT Right_Breast
				{
					OFFSET -4.947600 3.120102 3.185900
					CHANNELS 3 Xrotation Yrotation Zrotation
					End Site
					{
						OFFSET 0.000000 10.528564 0.000000
					}
				}
				JOINT Whistle
				{
					OFFSET 0.368200 11.471298 0.095400
					CHANNELS 3 Xrotation Yrotation Zrotation
					JOINT Whistle1
					{
						OFFSET -0.002000 -6.349899 7.479800
						CHANNELS 3 Xrotation Yrotation Zrotation
						JOINT Whistle2
						{
							OFFSET -0.001300 -8.217598 4.717600
							CHANNELS 3 Xrotation Yrotation Zrotation
							End Site
							{
								OFFSET 0.000000 9.475479 0.000000
							}
						}
					}
				}
			}
		}
		JOINT Belly
		{
			OFFSET 0.212400 1.593002 3.163700
			CHANNELS 3 Xrotation Yrotation Zrotation
			End Site
			{
				OFFSET 0.000000 7.496635 0.000000
			}
		}
	}
	JOINT FitGrandmaFacialAnim_Joint
	{
		OFFSET 1.150000 -86.211197 -1.220100
		CHANNELS 3 Xrotation Yrotation Zrotation
		End Site
		{
			OFFSET 0.000000 31.666618 0.000000
		}
	}
}
MOTION
Frames: 4
Frame Time: 0.016667
-3.778215 72.043907 3.773511 7.174490 -59.268461 -0.213853 -0.000000 0.000000 0.000000 -49.469076 -14.604493 33.800837 38.048522 -8.466752 -0.243542 16.032974 0.505757 -5.892286 -0.000001 -0.000001 0.000000 -0.000002 0.000003 0.000002 0.000005 0.000001 -0.000001 -48.259743 -2.857794 -16.645302 65.688538 2.760065 0.087228 -11.012053 -1.402894 10.620794 -0.000000 0.000001 -0.000001 -0.000002 0.000001 0.000000 0.000000 -0.000003 -0.000001 4.797895 10.982552 1.025257 6.079590 5.798313 -0.521032 5.085131 16.136091 1.189169 6.289638 5.421245 -4.908951 -11.393624 17.889737 5.359093 -0.000000 -0.000000 -0.000001 -0.000000 -0.000000 -0.000001 -0.000000 -0.000000 -0.000001 -0.000000 -0.000000 -0.000001 -0.000000 -0.000000 -0.000001 -0.000000 -0.000000 -0.000001 -0.000000 -0.000000 -0.000001 -0.000000 -0.000000 -0.000001 -0.000000 -0.000000 -0.000001 -0.000000 -0.000000 -0.000001 -0.000000 -0.000000 -0.000001 -0.000000 -0.000000 -0.000001 -0.000000 -0.000000 -0.000001 -0.000000 -0.000000 -0.000001 -0.000000 -0.000000 -0.000001 -0.000000 -0.000000 -0.000001 -0.000000 -0.000000 -0.000001 -0.000000 -0.000000 -0.000001 -0.000000 -0.000000 -0.000001 3.544246 4.756009 -11.623018 -54.038841 -33.116421 -50.381555 0.000108 -81.882350 0.000109 -58.768382 25.992650 38.870337 -14.557443 10.837965 12.229973 0.749571 -4.257804 13.305526 -0.000001 0.000002 -0.000000 -0.809531 2.578161 -31.496430 3.095891 5.163751 -61.866972 0.000001 -0.000000 -0.000001 -2.430828 1.729201 -41.460922 2.952349 5.084717 -60.259931 -0.000001 -0.000001 0.000000 -6.054100 -0.166588 -49.857563 3.046256 5.137055 -61.313952 -0.000000 0.000000 -0.000001 -8.298267 -6.522686 -38.520136 2.848756 5.024377 -59.084408 -0.000004 0.000001 0.000000 0.000001 -0.000000 -0.000000 -14.733700 2.115972 -4.463089 72.337557 138.834059 -52.653532 -0.000025 29.080722 0.000022 -49.752426 -7.371325 -31.498722 8.377130 -4.904129 11.022003 21.620183 -18.183912 -18.379190 -0.000001 0.000002 -0.000000 0.558912 -4.406576 25.436690 1.653068 -3.560346 49.799094 0.000001 0.000001 0.000001 10.969813 -12.875544 52.800832 6.387579 -4.324395 111.833686 -0.000001 0.000000 -0.000003 3.705089 -7.151340 57.622440 5.328226 -4.608675 98.293416 -0.000000 0.000001 -0.000002 0.474820 -5.173007 58.987672 3.194301 -4.421902 71.674168 -0.000003 0.000001 -0.000001 -0.000001 0.000001 0.000002 0.000002 -0.000003 -0.000000 0.000002 -0.000003 -0.000000 0.000002 -0.000003 -0.000000 0.000002 -0.000003 -0.000000 0.000002 -0.000003 -0.000000 0.000002 -0.000003 0.000000 0.000001 0.000001 0.000000 0.000001 0.000001 0.000000 0.000000 -0.000001 -0.000000 -0.000000 0.000000 0.000000 
-4.095633 73.280273 -0.181648 8.671456 -60.166324 0.769748 0.000000 0.000000 -0.000000 -52.840403 -14.507402 30.109441 46.354363 -5.458866 -0.111939 8.747217 0.149249 -6.028898 -0.000001 -0.000001 0.000001 -0.000000 0.000003 -0.000001 0.000002 0.000002 0.000003 -49.873563 -5.174893 -13.093468 62.929408 2.014023 0.072684 -5.501773 -0.944344 10.938293 0.000000 -0.000000 0.000000 -0.000000 -0.000000 0.000001 0.000001 -0.000001 0.000000 4.956196 10.808648 1.369063 6.266325 5.663338 -0.193638 5.219013 15.988003 1.524878 6.117316 5.473312 -4.875347 -11.907625 18.231192 4.903865 0.000000 -0.000000 0.000001 0.000000 -0.000000 0.000001 0.000000 -0.000000 0.000001 0.000000 -0.000000 0.000001 0.000000 -0.000000 0.000001 0.000000 -0.000000 0.000001 0.000000 -0.000000 0.000001 0.000000 -0.000000 0.000001 0.000000 -0.000000 0.000001 0.000000 -0.000000 0.000001 0.000000 -0.000000 0.000001 0.000000 -0.000000 0.000001 0.000000 -0.000000 0.000001 0.000000 -0.000000 0.000001 0.000000 -0.000000 0.000001 0.000000 -0.000000 0.000001 0.000000 -0.000000 0.000001 0.000000 -0.000000 0.000001 0.000000 -0.000000 0.000001 3.410884 4.228989 -11.245754 -53.679731 -32.244585 -50.209595 0.000394 -82.808271 0.000435 -57.769959 25.806956 38.829086 -14.557443 10.837967 12.229974 0.749571 -4.257803 13.305524 0.000001 0.000001 0.000002 -0.809529 2.578161 -31.496434 3.095891 5.163751 -61.866972 0.000000 -0.000001 0.000002 -2.430830 1.729201 -41.460922 2.952348 5.084716 -60.259925 -0.000000 -0.000001 0.000002 -6.054097 -0.166588 -49.857557 3.046257 5.137057 -61.313946 -0.000002 0.000000 0.000002 -8.298267 -6.522685 -38.520132 2.848759 5.024379 -59.084415 -0.000001 -0.000001 -0.000000 0.000002 -0.000000 0.000004 -14.874839 3.395350 -4.575098 74.932441 137.222079 -55.175149 -0.000018 32.460686 0.000021 -50.128585 -7.281813 -32.986088 8.377129 -4.904128 11.022003 21.620182 -18.183912 -18.379189 -0.000000 0.000002 0.000000 0.558908 -4.406575 25.436690 1.653069 -3.560346 49.799087 -0.000001 0.000001 -0.000002 10.969811 -12.875545 52.800835 6.387580 -4.324396 111.833686 -0.000000 -0.000000 0.000004 3.705086 -7.151340 57.622447 5.328225 -4.608679 98.293416 -0.000001 -0.000002 0.000001 0.474819 -5.173007 58.987672 3.194302 -4.421900 71.674161 -0.000001 -0.000001 0.000002 0.000000 -0.000000 -0.000002 0.000002 0.000000 0.000000 0.000002 0.000000 0.000000 0.000002 0.000000 0.000000 0.000002 0.000000 0.000000 0.000002 0.000000 0.000000 0.000002 0.000000 0.000000 -0.000002 0.000000 -0.000000 -0.000002 0.000000 -0.000000 0.000001 -0.000000 -0.000000 0.000000 0.000000 -0.000000 
-4.414028 74.640938 -4.180111 11.051866 -61.503497 2.570241 -0.000000 -0.000000 0.000000 -55.766644 -13.483514 26.186049 53.142239 -3.391211 -0.025552 2.657779 0.077289 -6.754914 -0.000000 0.000003 0.000000 -0.000000 0.000001 -0.000002 -0.000002 -0.000000 0.000001 -50.724960 -7.807763 -8.945211 59.320630 1.773599 0.101940 -2.694322 -0.557161 9.121613 0.000001 -0.000002 0.000000 0.000001 0.000001 -0.000000 0.000000 0.000002 -0.000001 5.009269 10.743471 1.475879 6.308407 5.733787 0.124731 5.204263 16.033845 1.859612 6.010201 5.497592 -4.746239 -12.496673 18.583678 4.459509 -0.000000 -0.000000 -0.000001 -0.000000 -0.000000 -0.000001 -0.000000 -0.000000 -0.000001 -0.000000 -0.000000 -0.000001 -0.000000 -0.000000 -0.000001 -0.000000 -0.000000 -0.000001 -0.000000 -0.000000 -0.000001 -0.000000 -0.000000 -0.000001 -0.000000 -0.000000 -0.000001 -0.000000 -0.000000 -0.000001 -0.000000 -0.000000 -0.000001 -0.000000 -0.000000 -0.000001 -0.000000 -0.000000 -0.000001 -0.000000 -0.000000 -0.000001 -0.000000 -0.000000 -0.000001 -0.000000 -0.000000 -0.000001 -0.000000 -0.000000 -0.000001 -0.000000 -0.000000 -0.000001 -0.000000 -0.000000 -0.000001 3.342830 3.885605 -11.068019 -52.875821 -31.812409 -49.380635 0.000063 -83.745346 0.000101 -57.807456 26.117754 39.099015 -14.557442 10.837967 12.229972 0.749571 -4.257802 13.305527 -0.000000 0.000002 -0.000000 -0.809528 2.578160 -31.496437 3.095891 5.163752 -61.866972 0.000002 -0.000000 -0.000001 -2.430828 1.729202 -41.460925 2.952348 5.084718 -60.259931 -0.000000 -0.000000 -0.000001 -6.054095 -0.166586 -49.857563 3.046258 5.137058 -61.313952 -0.000000 0.000000 0.000002 -8.298266 -6.522686 -38.520136 2.848758 5.024377 -59.084415 0.000000 -0.000000 -0.000001 0.000003 -0.000000 0.000004 -14.973895 4.793933 -4.441296 77.819241 135.933236 -57.695694 -0.000016 35.490028 0.000009 -50.675175 -7.755471 -34.661731 8.377131 -4.904126 11.022003 21.620180 -18.183912 -18.379185 -0.000001 0.000002 -0.000002 0.558907 -4.406574 25.436683 1.653068 -3.560348 49.799094 -0.000001 -0.000000 0.000001 10.969811 -12.875546 52.800835 6.387580 -4.324393 111.833693 0.000001 -0.000001 0.000002 3.705086 -7.151339 57.622447 5.328224 -4.608674 98.293416 0.000001 -0.000002 -0.000001 0.474820 -5.173004 58.987672 3.194301 -4.421905 71.674168 -0.000001 0.000000 -0.000000 -0.000001 -0.000001 -0.000001 -0.000002 -0.000000 -0.000000 -0.000002 -0.000000 -0.000000 -0.000002 -0.000000 -0.000000 -0.000002 -0.000000 -0.000000 -0.000002 -0.000000 -0.000000 -0.000002 -0.000000 -0.000000 -0.000002 -0.000000 0.000001 -0.000002 -0.000000 0.000001 0.000000 -0.000001 0.000000 -0.000000 -0.000000 0.000000 
-4.778868 76.042999 -8.197640 14.333417 -63.214125 5.419411 0.000000 0.000002 -0.000000 -58.230573 -11.249749 22.424923 57.499948 -2.648059 -0.000140 -1.340085 0.245472 -8.148430 0.000000 -0.000001 0.000000 0.000000 -0.000002 0.000001 -0.000002 -0.000001 -0.000004 -51.334213 -9.398518 -5.955092 55.602494 3.078162 0.186884 -1.151224 -0.487238 14.376554 -0.000001 0.000000 0.000000 0.000001 0.000000 0.000001 0.000004 -0.000001 -0.000001 4.998876 10.712673 1.220254 6.230983 6.000056 0.369756 5.078926 16.267957 2.126721 5.962569 5.490728 -4.561719 -13.126862 18.849130 4.125947 -0.000000 0.000000 -0.000000 -0.000000 0.000000 -0.000000 -0.000000 0.000000 -0.000000 -0.000000 0.000000 -0.000000 -0.000000 0.000000 -0.000000 -0.000000 0.000000 -0.000000 -0.000000 0.000000 -0.000000 -0.000000 0.000000 -0.000000 -0.000000 0.000000 -0.000000 -0.000000 0.000000 -0.000000 -0.000000 0.000000 -0.000000 -0.000000 0.000000 -0.000000 -0.000000 0.000000 -0.000000 -0.000000 0.000000 -0.000000 -0.000000 0.000000 -0.000000 -0.000000 0.000000 -0.000000 -0.000000 0.000000 -0.000000 -0.000000 0.000000 -0.000000 -0.000000 0.000000 -0.000000 3.352123 3.739649 -11.139677 -51.775897 -31.735402 -48.041525 0.000482 -84.599666 0.000482 -58.433846 26.315001 39.463525 -14.557443 10.837969 12.229974 0.749573 -4.257804 13.305524 0.000000 0.000001 0.000000 -0.809531 2.578161 -31.496430 3.095889 5.163751 -61.866966 0.000001 -0.000002 0.000002 -2.430830 1.729204 -41.460925 2.952348 5.084716 -60.259925 0.000000 -0.000000 0.000002 -6.054099 -0.166586 -49.857563 3.046257 5.137055 -61.313946 0.000001 -0.000000 0.000002 -8.298267 -6.522684 -38.520136 2.848757 5.024381 -59.084408 0.000001 0.000001 -0.000000 0.000003 -0.000000 -0.000003 -15.042383 6.381669 -4.115084 80.832960 134.974455 -60.173359 0.000012 38.062056 -0.000013 -50.934845 -8.384265 -36.240359 8.377129 -4.904128 11.022003 21.620185 -18.183910 -18.379187 -0.000003 0.000002 0.000000 0.558910 -4.406575 25.436687 1.653069 -3.560347 49.799094 -0.000001 0.000000 -0.000000 10.969811 -12.875545 52.800835 6.387579 -4.324395 111.833686 0.000003 0.000001 -0.000005 3.705088 -7.151340 57.622440 5.328227 -4.608676 98.293416 0.000002 -0.000002 0.000001 0.474821 -5.173006 58.987665 3.194301 -4.421900 71.674161 -0.000001 0.000002 -0.000003 -0.000002 -0.000001 -0.000000 0.000002 -0.000001 0.000002 0.000002 -0.000001 0.000002 0.000002 -0.000001 0.000002 0.000002 -0.000001 0.000002 0.000002 -0.000001 0.000002 0.000002 -0.000001 0.000001 -0.000000 -0.000002 0.000000 -0.000000 -0.000002 0.000000 0.000001 0.000003 -0.000001 0.000000 0.000002 -0.000000 
